<mxfile host="app.diagrams.net" modified="2023-07-11T09:43:00.351Z" agent="Mozilla/5.0 (Windows NT 10.0; Win64; x64) AppleWebKit/537.36 (KHTML, like Gecko) Chrome/114.0.0.0 Safari/537.36" etag="yqK-zInp_O6oMoxz7k19" version="21.6.1" type="device">
  <diagram name="Page-1" id="P7ijY_bP9K7w46cBVouJ">
    <mxGraphModel dx="1434" dy="764" grid="1" gridSize="10" guides="1" tooltips="1" connect="1" arrows="1" fold="1" page="1" pageScale="1" pageWidth="1654" pageHeight="1169" math="0" shadow="0">
      <root>
        <mxCell id="0" />
        <mxCell id="1" parent="0" />
        <mxCell id="hKRkJCob8LrO3rOwceKn-10" value="" style="rounded=0;whiteSpace=wrap;html=1;gradientColor=none;glass=0;shadow=0;fillColor=#3333FF;fillStyle=zigzag-line;" parent="1" vertex="1">
          <mxGeometry x="50" y="190" width="630" height="110" as="geometry" />
        </mxCell>
        <mxCell id="hKRkJCob8LrO3rOwceKn-1" value="P4-006" style="text;html=1;strokeColor=#001DBC;fillColor=#0050ef;align=center;verticalAlign=middle;whiteSpace=wrap;rounded=0;fontColor=#ffffff;" parent="1" vertex="1">
          <mxGeometry x="80" y="70" width="60" height="30" as="geometry" />
        </mxCell>
        <mxCell id="hKRkJCob8LrO3rOwceKn-5" value="" style="edgeStyle=orthogonalEdgeStyle;rounded=0;orthogonalLoop=1;jettySize=auto;html=1;" parent="1" source="hKRkJCob8LrO3rOwceKn-3" target="hKRkJCob8LrO3rOwceKn-4" edge="1">
          <mxGeometry relative="1" as="geometry" />
        </mxCell>
        <mxCell id="hKRkJCob8LrO3rOwceKn-3" value="&lt;h3&gt;&lt;span style=&quot;font-weight: normal;&quot;&gt;&lt;span style=&quot;font-family:&amp;quot;Microsoft JhengHei&amp;quot;,sans-serif;&lt;br/&gt;mso-ascii-font-family:Arial;mso-hansi-font-family:Arial;mso-fareast-language:&lt;br/&gt;ZH-TW&quot;&gt;公司卡消費參數限制（&lt;/span&gt;&lt;span lang=&quot;EN-GB&quot;&gt;EXMS1946&lt;/span&gt;&lt;span style=&quot;font-family:&amp;quot;Microsoft JhengHei&amp;quot;,sans-serif;mso-ascii-font-family:Arial;&lt;br/&gt;mso-hansi-font-family:Arial;mso-fareast-language:ZH-TW&quot;&gt;）&lt;/span&gt;&lt;/span&gt;&lt;span lang=&quot;EN-GB&quot;&gt;&lt;/span&gt;&lt;/h3&gt;" style="rounded=1;whiteSpace=wrap;html=1;fillColor=#ffe6cc;strokeColor=#d79b00;" parent="1" vertex="1">
          <mxGeometry x="70" y="220" width="280" height="60" as="geometry" />
        </mxCell>
        <mxCell id="hKRkJCob8LrO3rOwceKn-4" value="&lt;p style=&quot;margin-top:6.0pt;margin-right:0cm;margin-bottom:6.0pt;&lt;br/&gt;margin-left:0cm;mso-para-margin-top:.5gd;mso-para-margin-right:0cm;mso-para-margin-bottom:&lt;br/&gt;6.0pt;mso-para-margin-left:0cm;line-height:18.0pt;mso-line-height-rule:exactly;&lt;br/&gt;background:white&quot; class=&quot;MsoNormal&quot;&gt;——新增公司卡消費參數檢核項，卡號或統編（卡號優先）是否存在相應參數，如果相關對應的是，則拒絕網絡和實體消費交易；則拒絕網絡消費交易&lt;span lang=&quot;EN-GB&quot;&gt;X&lt;/span&gt;&lt;span lang=&quot;EN-GB&quot;&gt;MCC table&lt;/span&gt;&lt;span style=&quot;font-family: &amp;quot;Microsoft JhengHei&amp;quot;, sans-serif;&quot;&gt;&lt;/span&gt;&lt;span style=&quot;font-family: &amp;quot;Microsoft JhengHei&amp;quot;, sans-serif;&quot; lang=&quot;EN-GB&quot;&gt;&lt;/span&gt;&lt;/p&gt;" style="rounded=1;whiteSpace=wrap;html=1;fillColor=#ffe6cc;strokeColor=#d79b00;align=left;" parent="1" vertex="1">
          <mxGeometry x="70" y="330" width="280" height="90" as="geometry" />
        </mxCell>
        <mxCell id="hKRkJCob8LrO3rOwceKn-16" value="" style="edgeStyle=orthogonalEdgeStyle;rounded=0;orthogonalLoop=1;jettySize=auto;html=1;" parent="1" source="hKRkJCob8LrO3rOwceKn-6" target="hKRkJCob8LrO3rOwceKn-15" edge="1">
          <mxGeometry relative="1" as="geometry" />
        </mxCell>
        <mxCell id="hKRkJCob8LrO3rOwceKn-6" value="公司卡特店限制（&lt;span style=&quot;font-size:10.0pt;font-family:&lt;br/&gt;&amp;quot;Arial&amp;quot;,sans-serif;mso-fareast-font-family:SimSun;mso-bidi-font-family:&amp;quot;Maiandra GD&amp;quot;;&lt;br/&gt;mso-ansi-language:EN-GB;mso-fareast-language:ZH-TW;mso-bidi-language:AR-SA&quot; lang=&quot;EN-GB&quot;&gt;EXMS1956&lt;/span&gt;&lt;span style=&quot;font-size:10.0pt;font-family:SimSun;mso-ascii-font-family:Arial;&lt;br/&gt;mso-hansi-font-family:Arial;mso-bidi-font-family:&amp;quot;Maiandra GD&amp;quot;;mso-ansi-language:&lt;br/&gt;EN-GB;mso-fareast-language:ZH-TW;mso-bidi-language:AR-SA&quot;&gt;）&lt;/span&gt;" style="rounded=1;whiteSpace=wrap;html=1;fillColor=#ffe6cc;strokeColor=#d79b00;" parent="1" vertex="1">
          <mxGeometry x="380" y="220" width="280" height="60" as="geometry" />
        </mxCell>
        <mxCell id="hKRkJCob8LrO3rOwceKn-14" style="edgeStyle=orthogonalEdgeStyle;rounded=0;orthogonalLoop=1;jettySize=auto;html=1;" parent="1" source="hKRkJCob8LrO3rOwceKn-13" target="hKRkJCob8LrO3rOwceKn-10" edge="1">
          <mxGeometry relative="1" as="geometry" />
        </mxCell>
        <mxCell id="hKRkJCob8LrO3rOwceKn-13" value="IAS GUI ONLY" style="text;html=1;strokeColor=#6c8ebf;fillColor=#dae8fc;align=center;verticalAlign=middle;whiteSpace=wrap;rounded=0;" parent="1" vertex="1">
          <mxGeometry x="370" y="90" width="190" height="30" as="geometry" />
        </mxCell>
        <mxCell id="hKRkJCob8LrO3rOwceKn-15" value="——新增公司卡消費特店檢核項，卡號或統編（卡號優先）是否存在相應參數，比對功能啓用、特店、單筆限額id" style="rounded=1;whiteSpace=wrap;html=1;fillColor=#ffe6cc;strokeColor=#d79b00;align=left;verticalAlign=top;" parent="1" vertex="1">
          <mxGeometry x="380" y="330" width="280" height="90" as="geometry" />
        </mxCell>
        <mxCell id="s1JPpJMVCldGklY0epP9-5" value="" style="edgeStyle=orthogonalEdgeStyle;rounded=0;orthogonalLoop=1;jettySize=auto;html=1;" parent="1" source="s1JPpJMVCldGklY0epP9-2" target="s1JPpJMVCldGklY0epP9-4" edge="1">
          <mxGeometry relative="1" as="geometry" />
        </mxCell>
        <mxCell id="s1JPpJMVCldGklY0epP9-2" value="其他限制（採購卡&lt;span style=&quot;border-color: var(--border-color); text-align: left; font-size: 10pt;&quot; lang=&quot;EN-GB&quot;&gt;2&lt;/span&gt;&lt;span style=&quot;border-color: var(--border-color); text-align: left; font-size: 10pt; font-family: SimSun;&quot;&gt;）&lt;/span&gt;" style="rounded=1;whiteSpace=wrap;html=1;fillColor=#ffe6cc;strokeColor=#d79b00;" parent="1" vertex="1">
          <mxGeometry x="320" y="470" width="280" height="60" as="geometry" />
        </mxCell>
        <mxCell id="s1JPpJMVCldGklY0epP9-4" value="&lt;p class=&quot;BodytextWorldline&quot;&gt;IAS &lt;span style=&quot;font-family:&lt;br/&gt;&amp;quot;Microsoft JhengHei&amp;quot;,sans-serif;mso-fareast-language:ZH-CN&quot; lang=&quot;ZH-CN&quot;&gt;程序中&lt;/span&gt;&lt;span style=&quot;font-family:&amp;quot;Microsoft JhengHei&amp;quot;,sans-serif;mso-fareast-language:&lt;br/&gt;ZH-CN&quot; lang=&quot;EN-GB&quot;&gt;hard code&lt;/span&gt;&lt;span style=&quot;font-family:SimSun;mso-ascii-theme-font:&lt;br/&gt;minor-fareast;mso-fareast-theme-font:minor-fareast;mso-hansi-theme-font:minor-fareast;&lt;br/&gt;mso-fareast-language:ZH-CN&quot; lang=&quot;ZH-CN&quot;&gt;：&lt;/span&gt;&lt;span style=&quot;font-family:&amp;quot;Microsoft JhengHei&amp;quot;,sans-serif;&lt;br/&gt;mso-fareast-language:ZH-CN&quot; lang=&quot;ZH-CN&quot;&gt;針對特定的&lt;/span&gt;&lt;span style=&quot;font-family:&lt;br/&gt;&amp;quot;Microsoft JhengHei&amp;quot;,sans-serif;mso-fareast-language:ZH-CN&quot; lang=&quot;EN-GB&quot;&gt;product code&lt;/span&gt;&lt;span style=&quot;font-family:&amp;quot;Microsoft JhengHei&amp;quot;,sans-serif;mso-fareast-language:&lt;br/&gt;ZH-CN&quot; lang=&quot;ZH-CN&quot;&gt;，&lt;/span&gt;&lt;span style=&quot;font-family:&amp;quot;Microsoft JhengHei&amp;quot;,sans-serif;&lt;br/&gt;mso-ansi-language:FR;mso-fareast-language:ZH-CN&quot; lang=&quot;ZH-CN&quot;&gt;僅能在對應的&lt;/span&gt;&lt;span style=&quot;font-family:&amp;quot;Microsoft JhengHei&amp;quot;,sans-serif;mso-fareast-language:ZH-CN&quot; lang=&quot;ZH-CN&quot;&gt;特定商店消費（如&lt;/span&gt;&lt;span style=&quot;mso-bidi-font-size:12.0pt;font-family:&amp;quot;Microsoft JhengHei&amp;quot;,sans-serif;&lt;br/&gt;mso-bidi-font-family:Calibri&quot; lang=&quot;EN-GB&quot;&gt;TYPE 690&lt;/span&gt;&lt;span style=&quot;mso-bidi-font-size:&lt;br/&gt;12.0pt;font-family:&amp;quot;Microsoft JhengHei&amp;quot;,sans-serif;mso-bidi-font-family:Calibri&quot; lang=&quot;NL&quot;&gt;只能在&lt;/span&gt;&lt;span style=&quot;mso-bidi-font-size:12.0pt;font-family:&amp;quot;Microsoft JhengHei&amp;quot;,sans-serif;&lt;br/&gt;mso-bidi-font-family:Calibri&quot; lang=&quot;EN-GB&quot;&gt;302&lt;/span&gt;&lt;span style=&quot;mso-bidi-font-size:&lt;br/&gt;12.0pt;font-family:&amp;quot;Microsoft JhengHei&amp;quot;,sans-serif;mso-bidi-font-family:Calibri&quot; lang=&quot;NL&quot;&gt;商店消費&lt;/span&gt;&lt;span style=&quot;font-family:&amp;quot;Microsoft JhengHei&amp;quot;,sans-serif;mso-fareast-language:&lt;br/&gt;ZH-CN&quot; lang=&quot;ZH-CN&quot;&gt;）&lt;/span&gt;&lt;span style=&quot;font-family:&amp;quot;Microsoft JhengHei&amp;quot;,sans-serif;&lt;br/&gt;mso-fareast-language:ZH-TW&quot; lang=&quot;EN-GB&quot;&gt;;&lt;/span&gt;&lt;/p&gt;" style="rounded=1;whiteSpace=wrap;html=1;fillColor=#ffe6cc;strokeColor=#d79b00;align=left;" parent="1" vertex="1">
          <mxGeometry x="320" y="580" width="280" height="60" as="geometry" />
        </mxCell>
        <mxCell id="s1JPpJMVCldGklY0epP9-7" value="公司卡" style="swimlane;horizontal=1;whiteSpace=wrap;html=1;verticalAlign=middle;" parent="1" vertex="1">
          <mxGeometry x="50" y="460" width="200" height="200" as="geometry">
            <mxRectangle x="120" y="460" width="80" height="30" as="alternateBounds" />
          </mxGeometry>
        </mxCell>
        <mxCell id="s1JPpJMVCldGklY0epP9-12" value="產生公司卡&lt;span style=&quot;border-color: var(--border-color); text-align: center; font-weight: 700; font-size: 10pt; font-family: Arial, sans-serif;&quot; lang=&quot;EN-GB&quot;&gt;CDF&lt;/span&gt;&lt;span style=&quot;border-color: var(--border-color); text-align: center; font-weight: 700; font-size: 10pt; font-family: SimSun;&quot;&gt;、&lt;/span&gt;&lt;span style=&quot;border-color: var(--border-color); text-align: center; font-weight: 700; font-size: 10pt; font-family: Arial, sans-serif;&quot; lang=&quot;EN-GB&quot;&gt;VCF&lt;/span&gt;&lt;span style=&quot;border-color: var(--border-color); text-align: center; font-weight: 700; font-size: 10pt;&quot;&gt;資料&lt;/span&gt;" style="text;strokeColor=none;fillColor=none;align=left;verticalAlign=middle;spacingLeft=4;spacingRight=4;overflow=hidden;points=[[0,0.5],[1,0.5]];portConstraint=eastwest;rotatable=0;whiteSpace=wrap;html=1;" parent="s1JPpJMVCldGklY0epP9-7" vertex="1">
          <mxGeometry y="30" width="200" height="30" as="geometry" />
        </mxCell>
        <mxCell id="s1JPpJMVCldGklY0epP9-15" value="如果是公司卡戶&lt;span style=&quot;font-size:10.0pt;font-family:SimSun;&lt;br/&gt;mso-ascii-font-family:Arial;mso-ascii-theme-font:minor-latin;mso-hansi-font-family:&lt;br/&gt;Arial;mso-hansi-theme-font:minor-latin;mso-bidi-font-family:Arial;mso-bidi-theme-font:&lt;br/&gt;minor-latin;mso-ansi-language:EN-US;mso-fareast-language:ZH-TW;mso-bidi-language:&lt;br/&gt;AR-SA&quot;&gt;時&lt;/span&gt;&lt;span style=&quot;font-size:10.0pt;font-family:&amp;quot;Arial&amp;quot;,sans-serif;&lt;br/&gt;mso-ascii-theme-font:minor-latin;mso-fareast-font-family:SimSun;mso-hansi-theme-font:&lt;br/&gt;minor-latin;mso-bidi-theme-font:minor-latin;mso-ansi-language:EN-US;mso-fareast-language:&lt;br/&gt;ZH-TW;mso-bidi-language:AR-SA&quot; lang=&quot;EN-US&quot;&gt;, &lt;/span&gt;&lt;span style=&quot;font-size:10.0pt;&lt;br/&gt;font-family:SimSun;mso-ascii-font-family:Arial;mso-ascii-theme-font:minor-latin;&lt;br/&gt;mso-hansi-font-family:Arial;mso-hansi-theme-font:minor-latin;mso-bidi-font-family:&lt;br/&gt;Arial;mso-bidi-theme-font:minor-latin;mso-ansi-language:EN-US;mso-fareast-language:&lt;br/&gt;ZH-TW;mso-bidi-language:AR-SA&quot;&gt;若&lt;/span&gt;&lt;span style=&quot;font-size:10.0pt;&lt;br/&gt;font-family:&amp;quot;Arial&amp;quot;,sans-serif;mso-ascii-theme-font:minor-latin;mso-fareast-font-family:&lt;br/&gt;SimSun;mso-hansi-theme-font:minor-latin;mso-bidi-theme-font:minor-latin;&lt;br/&gt;mso-ansi-language:EN-US;mso-fareast-language:ZH-TW;mso-bidi-language:AR-SA&quot; lang=&quot;EN-US&quot;&gt;MCC= 5944&lt;/span&gt;&lt;span style=&quot;font-size:10.0pt;font-family:SimSun;mso-ascii-font-family:&lt;br/&gt;Arial;mso-ascii-theme-font:minor-latin;mso-hansi-font-family:Arial;mso-hansi-theme-font:&lt;br/&gt;minor-latin;mso-bidi-font-family:Arial;mso-bidi-theme-font:minor-latin;&lt;br/&gt;mso-ansi-language:EN-US;mso-fareast-language:ZH-TW;mso-bidi-language:AR-SA&quot;&gt;，在授權&lt;/span&gt;&lt;span style=&quot;font-size:10.0pt;font-family:&amp;quot;Arial&amp;quot;,sans-serif;mso-ascii-theme-font:&lt;br/&gt;minor-latin;mso-fareast-font-family:SimSun;mso-hansi-theme-font:minor-latin;&lt;br/&gt;mso-bidi-theme-font:minor-latin;mso-ansi-language:EN-US;mso-fareast-language:&lt;br/&gt;ZH-TW;mso-bidi-language:AR-SA&quot; lang=&quot;EN-US&quot;&gt;log &lt;/span&gt;&lt;span style=&quot;font-size:10.0pt;&lt;br/&gt;font-family:SimSun;mso-ascii-font-family:Arial;mso-ascii-theme-font:minor-latin;&lt;br/&gt;mso-hansi-font-family:Arial;mso-hansi-theme-font:minor-latin;mso-bidi-font-family:&lt;br/&gt;Arial;mso-bidi-theme-font:minor-latin;mso-ansi-language:EN-US;mso-fareast-language:&lt;br/&gt;ZH-TW;mso-bidi-language:AR-SA&quot;&gt;做註記（如&lt;/span&gt;&lt;span style=&quot;font-size:&lt;br/&gt;10.0pt;font-family:&amp;quot;Arial&amp;quot;,sans-serif;mso-ascii-theme-font:minor-latin;&lt;br/&gt;mso-fareast-font-family:SimSun;mso-hansi-theme-font:minor-latin;mso-bidi-theme-font:&lt;br/&gt;minor-latin;mso-ansi-language:EN-US;mso-fareast-language:ZH-TW;mso-bidi-language:&lt;br/&gt;AR-SA&quot; lang=&quot;EN-US&quot;&gt;alert flag&lt;/span&gt;&lt;span style=&quot;font-size:10.0pt;font-family:SimSun;&lt;br/&gt;mso-ascii-font-family:Arial;mso-ascii-theme-font:minor-latin;mso-hansi-font-family:&lt;br/&gt;Arial;mso-hansi-theme-font:minor-latin;mso-bidi-font-family:Arial;mso-bidi-theme-font:&lt;br/&gt;minor-latin;mso-ansi-language:EN-US;mso-fareast-language:ZH-TW;mso-bidi-language:&lt;br/&gt;AR-SA&quot;&gt;、公司號）&lt;/span&gt;&lt;span style=&quot;font-size:10.0pt;font-family:&amp;quot;Arial&amp;quot;,sans-serif;&lt;br/&gt;mso-ascii-theme-font:minor-latin;mso-fareast-font-family:SimSun;mso-hansi-theme-font:&lt;br/&gt;minor-latin;mso-bidi-theme-font:minor-latin;mso-ansi-language:EN-US;mso-fareast-language:&lt;br/&gt;ZH-TW;mso-bidi-language:AR-SA&quot; lang=&quot;EN-US&quot;&gt;;&lt;/span&gt;" style="rounded=1;whiteSpace=wrap;html=1;fillColor=#ffe6cc;strokeColor=#d79b00;align=left;" parent="1" vertex="1">
          <mxGeometry x="680" y="580" width="280" height="60" as="geometry" />
        </mxCell>
        <mxCell id="s1JPpJMVCldGklY0epP9-20" value="" style="edgeStyle=orthogonalEdgeStyle;rounded=0;orthogonalLoop=1;jettySize=auto;html=1;" parent="1" source="s1JPpJMVCldGklY0epP9-17" target="s1JPpJMVCldGklY0epP9-15" edge="1">
          <mxGeometry relative="1" as="geometry" />
        </mxCell>
        <mxCell id="s1JPpJMVCldGklY0epP9-17" value="公司卡特店群組消費通知" style="rounded=1;whiteSpace=wrap;html=1;fillColor=#ffe6cc;strokeColor=#d79b00;" parent="1" vertex="1">
          <mxGeometry x="680" y="470" width="280" height="60" as="geometry" />
        </mxCell>
        <mxCell id="yoTo823quTNXT_1C_AL9-2" value="&lt;p class=&quot;BodytextWorldline&quot;&gt;如果公司卡產品上設置 ACP標記為&lt;span style=&quot;font-family:&amp;quot;Arial&amp;quot;,sans-serif;mso-ascii-theme-font:minor-latin;&lt;br/&gt;mso-hansi-theme-font:minor-latin;mso-bidi-theme-font:minor-latin;mso-ansi-language:&lt;br/&gt;EN-US;mso-fareast-language:ZH-TW&quot; lang=&quot;EN-US&quot;&gt; “Standalone limit”&lt;/span&gt;&lt;span lang=&quot;EN-US&quot;&gt; &lt;/span&gt;， 授權時會按兩層額度控管&lt;span lang=&quot;EN-GB&quot;&gt;(&lt;/span&gt;會檢查帳戶和公司戶兩層是否有足夠的可用餘額&lt;span lang=&quot;EN-US&quot;&gt;)&lt;/span&gt;。&lt;span lang=&quot;EN-GB&quot;&gt;&lt;/span&gt;&lt;/p&gt;" style="text;html=1;strokeColor=none;fillColor=none;align=left;verticalAlign=middle;whiteSpace=wrap;rounded=0;fontStyle=1;fontColor=#FF0000;" parent="1" vertex="1">
          <mxGeometry x="640" y="40" width="350" height="30" as="geometry" />
        </mxCell>
        <mxCell id="yoTo823quTNXT_1C_AL9-3" value="&lt;p class=&quot;BodytextWorldline&quot;&gt;如果公司卡產品上設置 ACP標記為&lt;span style=&quot;font-family:&amp;quot;Arial&amp;quot;,sans-serif;mso-ascii-theme-font:minor-latin;&lt;br/&gt;mso-hansi-theme-font:minor-latin;mso-bidi-theme-font:minor-latin;mso-ansi-language:&lt;br/&gt;EN-US;mso-fareast-language:ZH-TW&quot; lang=&quot;EN-US&quot;&gt; “Combine limit”&lt;/span&gt;&lt;span lang=&quot;EN-US&quot;&gt; &lt;/span&gt;， 授權時會按&lt;span style=&quot;font-family:SimSun;&lt;br/&gt;mso-ascii-font-family:&amp;quot;Microsoft JhengHei&amp;quot;;mso-fareast-theme-font:minor-fareast;&lt;br/&gt;mso-hansi-font-family:&amp;quot;Microsoft JhengHei&amp;quot;;mso-bidi-font-family:Arial;&lt;br/&gt;mso-ansi-language:EN-US;mso-fareast-language:ZH-TW&quot;&gt;三&lt;/span&gt;層額度控管&lt;span lang=&quot;EN-GB&quot;&gt;(&lt;/span&gt;會檢查帳戶&lt;span style=&quot;font-family:SimSun;&lt;br/&gt;mso-ascii-font-family:&amp;quot;Microsoft JhengHei&amp;quot;;mso-fareast-theme-font:minor-fareast;&lt;br/&gt;mso-hansi-font-family:&amp;quot;Microsoft JhengHei&amp;quot;;mso-bidi-font-family:Arial;&lt;br/&gt;mso-ansi-language:EN-US;mso-fareast-language:ZH-TW&quot;&gt;、&lt;/span&gt;員工歸戶和公司戶三層是否有足夠的可用餘額&lt;span lang=&quot;EN-US&quot;&gt;)&lt;/span&gt;。&lt;span lang=&quot;EN-GB&quot;&gt;&lt;/span&gt;&lt;/p&gt;" style="text;html=1;strokeColor=none;fillColor=none;align=left;verticalAlign=middle;whiteSpace=wrap;rounded=0;fontStyle=1;fontColor=#FF0000;" parent="1" vertex="1">
          <mxGeometry x="645" y="110" width="350" height="30" as="geometry" />
        </mxCell>
        <mxCell id="yoTo823quTNXT_1C_AL9-5" value="" style="rounded=0;whiteSpace=wrap;html=1;fillColor=none;glass=0;shadow=0;gradientColor=#b3b3b3;strokeColor=#3333FF;dashed=1;dashPattern=1 2;strokeWidth=2;" parent="1" vertex="1">
          <mxGeometry x="620" y="20" width="440" height="130" as="geometry" />
        </mxCell>
        <mxCell id="yoTo823quTNXT_1C_AL9-6" value="P4-015" style="text;html=1;strokeColor=#001DBC;fillColor=#0050ef;align=center;verticalAlign=middle;whiteSpace=wrap;rounded=0;fontColor=#ffffff;" parent="1" vertex="1">
          <mxGeometry x="995" y="60" width="60" height="30" as="geometry" />
        </mxCell>
      </root>
    </mxGraphModel>
  </diagram>
</mxfile>
